<svg class="icon" viewBox="0 0 1024 1024" version="1.1" xmlns="http://www.w3.org/2000/svg"
     width="20" height="20">
    <path d="M1001.591808 851.143191L892.729244 789.266741V385.333487c0-13.943248-9.313037-32.516706-23.203669-37.146916L544.358517 157.874395V23.229977a23.203669 23.203669 0 1 0-46.459954 0V157.874395L335.36765 250.636454l-162.583529 92.919907a55.825607 55.825607 0 0 0-21.73042 18.362994A50.143076 50.143076 0 0 0 145.160706 385.333487V789.266741L22.460126 855.562938c-14.101096 4.682827-18.573458 23.151053-9.260421 32.516705 9.313037 13.943248 23.203669 18.573458 37.146917 9.313038L168.15391 831.359564l162.58353 92.919907L497.688099 1017.04153a34.831811 34.831811 0 0 0 41.777127 0l325.219675-190.417408 113.492774 61.665986c9.313037 9.313037 27.886495 4.630211 32.516706-9.313038 9.313037-4.630211 4.630211-23.203669-9.313037-27.886495z m-515.637083 94.708852l-281.916683-152.586484-4.472362-353.842794 286.389045 164.056778z m30.675145-403.459709L228.030951 380.966357l292.913433-168.371292 293.071281 166.266651-297.543644 163.741082z m321.589168 234.930569l-286.389045 166.266651v-340.004779L840.323679 442.000951z"
          fill="#666666"></path>
</svg>