<svg viewBox="0 0 1026 1024" version="1.1" xmlns="http://www.w3.org/2000/svg"
     width="20" height="20">
    <path d="M999.489251 394.723515c-10.996537 0-19.910442-8.913905-19.910442-19.910442v-50.993628c0-10.996537 8.913905-19.910442 19.910442-19.910442s19.910442 8.913905 19.910441 19.910442v50.993628c0 10.996537-8.913905 19.910442-19.910441 19.910442z m0-210.277163c-10.996537 0-19.910442-8.913905-19.910442-19.910442v-59.731326c0-10.996537 8.913905-19.910442 19.910442-19.910442s19.910442 8.913905 19.910441 19.910442v59.731326c0 10.996537-8.913905 19.910442-19.910441 19.910442zM889.898196 70.850312h-59.731325c-10.996537 0-19.910442-8.913905-19.910442-19.910442s8.913905-19.910442 19.910442-19.910442h59.731325c10.996537 0 19.910442 8.913905 19.910442 19.910442s-8.913905 19.910442-19.910442 19.910442z m-219.014861 0h-59.731325c-10.996537 0-19.910442-8.913905-19.910442-19.910442s8.913905-19.910442 19.910442-19.910442h59.731325c10.996537 0 19.910442 8.913905 19.910442 19.910442s-8.913905 19.910442-19.910442 19.910442z"
          fill="#DCDDDD"></path>
    <path d="M999.489251 1014.044779c-10.996537 0-19.910442-8.913905-19.910442-19.910442V388.222756c0-10.996537 8.913905-19.910442 19.910442-19.910442s19.910442 8.913905 19.910441 19.910442v605.912577c0 10.995542-8.913905 19.909446-19.910441 19.909446zM600.866275 70.850312H21.886553c-10.995542 0-19.910442-8.913905-19.910442-19.910442s8.9149-19.910442 19.910442-19.910442h578.979722c10.996537 0 19.910442 8.913905 19.910442 19.910442s-8.913905 19.910442-19.910442 19.910442z"
          fill="#20A2DD"></path>
    <path d="M996.992481 403.403472a19.828809 19.828809 0 0 1-13.088129-4.913897L603.698536 66.484948c-8.281748-7.232468-9.133915-19.809894-1.900452-28.093634 7.233464-8.283739 19.81089-9.133915 28.093634-1.900452l380.205816 332.004628c8.281748 7.232468 9.133915 19.809894 1.900452 28.093634a19.867634 19.867634 0 0 1-15.005505 6.814348z"
          fill="#F39835"></path>
</svg>