<svg t="1692856729706" class="icon" viewBox="0 0 1024 1024" version="1.1" xmlns="http://www.w3.org/2000/svg" p-id="3450"
     width="120" height="120">
    <path d="M839.4 638.3h-39.9v-22.1c0-33.4-5.3-64.4-45-69.4-14.5-1.8-29.8-1.4-45-0.7V196.6c0-44.1-67.5-44.2-67.5 0v349.2c-14.8-0.4-29.6-0.5-44 1-34.3 3.6-45.6 28.5-46.1 59.7-0.2 10.6-0.1 21.2-0.1 31.8H207.1c-43.4 0-43.5 68.6 0 68.6h344.8v4.2c0 26.8-5.4 61.8 20 79.2 17.4 11.9 45.8 10.5 70 9.1v39.5c0 44.1 67.5 44.2 67.5 0v-40.5h33.2c5.5 2 12 2 19.3-0.7 5.7-1.2 10.4-3.8 14.2-7.2 22.6-15.2 23.4-38 23.4-67V707h39.9c43.4-0.1 43.5-68.7 0-68.7zM733.3 614c0.4 7.6 0.3 15.9 0 24.3h-23.8v-24.2c8.2-0.4 16.4-0.5 23.8-0.1z m-115.2 0c7.5-0.4 15.6-0.3 23.9 0v24.2h-23.8c-0.4-8.3-0.5-16.6-0.1-24.2z m0 117.2c-0.4-7.6-0.3-15.9 0-24.3h23.8v24.2c-8.2 0.3-16.4 0.5-23.8 0.1z m115.3-1.4h-24v-22.9h23.8c0.4 7.9 0.5 15.6 0.2 22.9z"
          fill="#DAE9FF" p-id="3451"></path>
    <path d="M816.9 626.9H777v-22.1c0-33.4-5.3-64.4-45-69.4-14.5-1.8-29.8-1.4-45-0.7V185.2c0-44.1-67.5-44.2-67.5 0v349.2c-14.8-0.4-29.6-0.5-44 1-34.3 3.6-45.6 28.5-46.1 59.7-0.2 10.6-0.1 21.2-0.1 31.8H184.6c-43.4 0-43.5 68.6 0 68.6h344.8v4.2c0 26.8-5.4 61.8 20 79.2 17.4 11.9 45.8 10.5 70 9.1v39.5c0 44.1 67.5 44.2 67.5 0V787h33.2c5.5 2 12 2 19.3-0.7 5.7-1.2 10.4-3.8 14.2-7.2 22.6-15.2 23.4-38 23.4-67v-16.5h39.9c43.4-0.1 43.5-68.7 0-68.7z m-106.1-24.3c0.4 7.6 0.3 15.9 0 24.3H687v-24.2c8.2-0.4 16.4-0.5 23.8-0.1z m-115.3 0c7.5-0.4 15.6-0.3 23.9 0v24.2h-23.8c-0.3-8.3-0.4-16.6-0.1-24.2z m0.1 117.1c-0.4-7.6-0.3-15.9 0-24.3h23.8v24.2c-8.2 0.4-16.4 0.5-23.8 0.1z m115.3-1.4h-24v-22.9h23.8c0.4 7.9 0.5 15.7 0.2 22.9z"
          fill="#3889FF" p-id="3452"></path>
</svg>