  <svg viewBox="0 0 1024 1024" xmlns="http://www.w3.org/2000/svg"
       width="20px" height="20px" fill="#777">
    <path
        d="M930.176 422.4a52.650667 52.650667 0 0 0-34.133333-17.066667h-12.8V324.266667a51.2 51.2 0 0 0-46.933334-51.2h-341.333333l-34.133333-85.333334a32.085333 32.085333 0 0 0-29.866667-21.333333h-307.2a33.664 33.664 0 0 0-34.133333 34.133333v605.866667a61.696 61.696 0 0 0 8.533333 29.866667 52.650667 52.650667 0 0 0 34.133333 17.066666h695.466667a61.696 61.696 0 0 0 29.866667-8.533333l4.266666-4.266667a36.864 36.864 0 0 0 12.8-25.6l59.733334-354.133333a53.504 53.504 0 0 0-4.266667-38.4z m-524.8-187.733333l34.133333 85.333333a32.085333 32.085333 0 0 0 29.866667 21.333333h345.6v68.266667h-635.733333a32.085333 32.085333 0 0 0-29.866667 21.333333V234.666667z m-251.733333 554.666666l51.2-315.733333h661.333333l-51.2 315.733333z"
    ></path>
  </svg>