<svg t="1692855796404" class="icon" viewBox="0 0 1024 1024" version="1.1" xmlns="http://www.w3.org/2000/svg" p-id="1967"
     width="32" height="32" fill="#777">
    <path d="M691.2 896H614.4c-14.336 0-25.6-11.264-25.6-25.6 0-42.496-34.304-76.8-76.8-76.8s-76.8 34.304-76.8 76.8c0 14.336-11.264 25.6-25.6 25.6H332.8c-169.472 0-307.2-137.728-307.2-307.2s137.728-307.2 307.2-307.2h358.4c169.472 0 307.2 137.728 307.2 307.2s-137.728 307.2-307.2 307.2z m-51.2-25.6z m-2.56-25.6h53.76c141.312 0 256-114.688 256-256s-114.688-256-256-256h-358.4c-141.312 0-256 114.688-256 256s114.688 256 256 256h53.76a128 128 0 0 1 250.88 0z"
          p-id="1968"></path>
    <path d="M742.4 691.2c-56.32 0-102.4-46.08-102.4-102.4s46.08-102.4 102.4-102.4 102.4 46.08 102.4 102.4-46.08 102.4-102.4 102.4z m0-153.6c-28.16 0-51.2 23.04-51.2 51.2s23.04 51.2 51.2 51.2 51.2-23.04 51.2-51.2-23.04-51.2-51.2-51.2z"
          p-id="1969"></path>
    <path d="M358.4 614.4H204.8c-14.336 0-25.6-11.264-25.6-25.6s11.264-25.6 25.6-25.6h153.6c14.336 0 25.6 11.264 25.6 25.6s-11.264 25.6-25.6 25.6z"
          p-id="1970"></path>
    <path d="M281.6 691.2c-14.336 0-25.6-11.264-25.6-25.6v-153.6c0-14.336 11.264-25.6 25.6-25.6s25.6 11.264 25.6 25.6v153.6c0 14.336-11.264 25.6-25.6 25.6z"
          p-id="1971"></path>
    <path d="M512 332.8c-14.336 0-25.6-11.264-25.6-25.6V233.984c0-14.336 11.264-25.6 25.6-25.6s25.6 11.264 25.6 25.6V307.2c0 14.336-11.264 25.6-25.6 25.6z"
          p-id="1972"></path>
</svg>