<svg t="1692855747920" class="icon" viewBox="0 0 1024 1024" version="1.1" xmlns="http://www.w3.org/2000/svg" p-id="1684"
     width="32" height="32" fill="#777">
    <path d="M802.816 715.776a24.576 24.576 0 0 1-12.9024-45.4656l42.1888-26.0096a24.1664 24.1664 0 0 0 10.8544-27.648 25.3952 25.3952 0 0 0-11.6736-14.7456 403.0464 403.0464 0 0 1-49.3568-32.5632 24.3712 24.3712 0 0 1-4.5056-34.4064 24.3712 24.3712 0 0 1 34.4064-4.5056c13.7216 10.4448 28.2624 20.0704 43.6224 28.672a73.728 73.728 0 0 1 2.4576 126.976l-42.1888 26.0096a24.1664 24.1664 0 0 1-12.9024 3.6864m-322.7648 190.6688a73.728 73.728 0 0 1-36.2496-9.4208L127.5904 718.848a74.1376 74.1376 0 0 1-2.4576-126.976l44.6464-27.648a24.576 24.576 0 0 1 33.9968 7.9872 24.576 24.576 0 0 1-8.192 33.792l-44.6464 27.648a25.1904 25.1904 0 0 0-8.6016 8.8064 24.7808 24.7808 0 0 0 9.4208 33.5872l316.2112 178.176a24.3712 24.3712 0 0 0 24.9856-0.6144l87.8592-54.272a24.7808 24.7808 0 0 1 33.792 7.9872 24.576 24.576 0 0 1-7.7824 33.792l-88.064 54.4768a74.752 74.752 0 0 1-38.7072 10.8544M502.9888 125.7472a24.1664 24.1664 0 0 0-12.9024 3.6864L150.9376 338.7392a22.3232 22.3232 0 0 0-8.6016 8.8064 24.576 24.576 0 0 0 9.4208 33.5872l316.2112 178.176c7.7824 4.3008 17.408 4.096 24.9856-0.6144l339.1488-209.3056a27.2384 27.2384 0 0 0 8.6016-8.8064 23.7568 23.7568 0 0 0 2.2528-18.6368 25.1904 25.1904 0 0 0-11.6736-14.9504L515.072 128.8192a25.1904 25.1904 0 0 0-12.0832-3.072m-22.9376 485.7856a73.728 73.728 0 0 1-36.2496-9.4208L127.5904 423.936a73.5232 73.5232 0 0 1-2.4576-126.976L464.2816 87.6544A73.728 73.728 0 0 1 539.2384 86.016l316.2112 178.176a73.5232 73.5232 0 0 1 2.4576 126.976L518.7584 600.6784a74.752 74.752 0 0 1-38.7072 10.8544"
          p-id="1685"></path>
    <path d="M480.0512 756.3264a73.728 73.728 0 0 1-36.2496-9.6256l-316.2112-178.176a73.1136 73.1136 0 0 1-2.6624-126.7712l43.008-26.624a24.576 24.576 0 0 1 25.8048 41.984l-43.008 26.4192a23.1424 23.1424 0 0 0-8.3968 8.8064 23.7568 23.7568 0 0 0-2.2528 18.6368 24.1664 24.1664 0 0 0 11.6736 14.7456l316.2112 178.176a24.3712 24.3712 0 0 0 24.9856-0.4096l339.1488-209.3056a24.576 24.576 0 0 0 10.8544-27.648 24.576 24.576 0 0 0-11.6736-14.7456l-44.032-24.7808a24.576 24.576 0 0 1-9.216-33.3824 24.1664 24.1664 0 0 1 33.3824-9.4208l44.032 24.7808a73.1136 73.1136 0 0 1 2.4576 126.976L518.7584 745.2672a73.728 73.728 0 0 1-38.7072 11.0592"
          p-id="1686"></path>
    <path d="M747.7248 427.008a23.9616 23.9616 0 0 1-12.288-3.2768L350.0032 202.5472a24.576 24.576 0 0 1-9.0112-33.5872 24.576 24.576 0 0 1 33.5872-9.0112l385.4336 221.184a24.576 24.576 0 0 1-12.288 45.8752M473.4976 513.8432a23.1424 23.1424 0 0 1-12.9024-3.8912l-41.7792-26.0096a24.576 24.576 0 0 1-7.5776-33.9968 24.576 24.576 0 0 1 33.792-7.7824l41.5744 26.2144c11.4688 7.3728 14.9504 22.528 7.7824 33.9968a24.7808 24.7808 0 0 1-20.8896 11.4688M708.8128 672.768v128.8192H661.504a14.336 14.336 0 0 0-10.6496 4.5056 14.7456 14.7456 0 0 0 0.4096 20.8896l84.7872 78.848 89.7024-87.2448a10.24 10.24 0 0 0 3.072-7.168 9.6256 9.6256 0 0 0-9.8304-9.8304h-60.8256v-128.8192a24.576 24.576 0 0 0-49.3568 0z"
          p-id="1687"></path>
</svg>