<svg t="1692855634618" class="icon" viewBox="0 0 1024 1024" version="1.1" xmlns="http://www.w3.org/2000/svg" p-id="1113"
     width="32" height="32" fill="#777">
    <path d="M765.952 998.4H238.08c-33.792 0-63.488-21.504-73.216-53.76l-128-409.6c-12.8-40.448 9.728-83.968 50.176-96.256 7.68-2.56 15.36-3.584 23.04-3.584h783.36a76.6976 76.6976 0 0 1 73.216 99.84l-128 409.6a75.264 75.264 0 0 1-72.704 53.76zM110.08 486.4c-2.56 0-5.12 0.512-7.68 1.024a26.112 26.112 0 0 0-16.896 32.256l128 409.6c3.584 10.752 13.312 17.92 24.576 17.92h527.872c11.264 0 20.992-7.168 24.576-17.92l128-409.6c0.512-2.56 1.024-5.12 1.024-7.68 0-14.336-11.264-25.6-25.6-25.6H110.08z"
          p-id="1114"></path>
    <path d="M114.176 469.504L53.76 359.936c-20.48-37.376-7.168-83.968 29.696-104.448l179.2-99.328c36.864-20.48 83.968-7.168 104.448 29.696l36.352 51.2-41.472 29.696-37.888-53.76A31.232 31.232 0 0 0 307.2 198.656a25.4976 25.4976 0 0 0-19.456 2.048l-179.2 99.328c-12.288 6.656-16.896 22.528-10.24 34.816l60.928 109.568-45.056 25.088z"
          p-id="1115"></path>
    <path d="M727.552 487.424h-414.72l55.296-350.208c3.072-20.48 14.336-37.888 30.72-50.176 16.384-12.288 36.864-16.896 57.344-13.824l252.928 39.936c41.984 6.656 70.656 46.08 64 88.064l-45.568 286.208z m-354.816-51.2h310.784l38.4-243.2a25.4976 25.4976 0 0 0-21.504-29.184l-252.416-39.936a25.2416 25.2416 0 0 0-18.944 4.608 23.552 23.552 0 0 0-10.24 16.384l-46.08 291.328z"
          p-id="1116"></path>
    <path d="M816.128 474.112l-43.52-27.136 123.392-198.144c7.68-12.288 4.608-28.16-7.168-35.84L716.8 101.888a25.6 25.6 0 0 0-35.328 7.68l-19.968 32.256-43.52-26.624 19.968-32.768c23.552-35.84 71.168-46.08 106.496-23.04l171.52 111.616c35.328 23.04 45.568 70.656 22.528 106.496l-122.368 196.608z"
          p-id="1117"></path>
</svg>