<svg t="1692855677305" class="icon" viewBox="0 0 1024 1024" version="1.1" xmlns="http://www.w3.org/2000/svg" p-id="1256"
     width="32" height="32" fill="#777">
    <path d="M409.6 537.6H153.6c-42.496 0-76.8-34.304-76.8-76.8V204.8c0-42.496 34.304-76.8 76.8-76.8h256c42.496 0 76.8 34.304 76.8 76.8v256c0 42.496-34.304 76.8-76.8 76.8z m-256-358.4c-14.336 0-25.6 11.264-25.6 25.6v256c0 14.336 11.264 25.6 25.6 25.6h256c14.336 0 25.6-11.264 25.6-25.6V204.8c0-14.336-11.264-25.6-25.6-25.6H153.6z"
          p-id="1257"></path>
    <path d="M409.6 998.4H153.6c-42.496 0-76.8-34.304-76.8-76.8v-256c0-42.496 34.304-76.8 76.8-76.8h256c42.496 0 76.8 34.304 76.8 76.8v256c0 42.496-34.304 76.8-76.8 76.8z m-256-358.4c-14.336 0-25.6 11.264-25.6 25.6v256c0 14.336 11.264 25.6 25.6 25.6h256c14.336 0 25.6-11.264 25.6-25.6v-256c0-14.336-11.264-25.6-25.6-25.6H153.6z"
          p-id="1258"></path>
    <path d="M870.4 998.4h-256c-42.496 0-76.8-34.304-76.8-76.8v-256c0-42.496 34.304-76.8 76.8-76.8h256c42.496 0 76.8 34.304 76.8 76.8v256c0 42.496-34.304 76.8-76.8 76.8z m-256-358.4c-14.336 0-25.6 11.264-25.6 25.6v256c0 14.336 11.264 25.6 25.6 25.6h256c14.336 0 25.6-11.264 25.6-25.6v-256c0-14.336-11.264-25.6-25.6-25.6h-256z"
          p-id="1259"></path>
    <path d="M768 528.896c-19.456 0-39.424-7.68-54.272-22.528l-144.896-144.896c-29.696-29.696-29.696-78.848 0-108.544l144.896-144.896c29.696-29.696 78.848-29.696 108.544 0l144.896 144.896c29.696 29.696 29.696 78.848 0 108.544l-144.896 144.896c-14.848 14.848-34.816 22.528-54.272 22.528z m0-392.192a24.064 24.064 0 0 0-17.92 7.68l-144.896 144.896c-10.24 9.728-10.24 26.112 0 36.352l144.896 144.896c10.24 10.24 26.112 10.24 36.352 0l144.896-144.896c10.24-9.728 10.24-26.112 0-36.352l-144.896-144.896c-5.12-5.12-11.776-7.68-18.432-7.68z"
          p-id="1260"></path>
</svg>