<svg t="1692855774888" class="icon" viewBox="0 0 1024 1024" version="1.1" xmlns="http://www.w3.org/2000/svg" p-id="1826"
     width="32" height="32" fill="#777">
    <path d="M770.048 1024H202.24C147.456 1024 102.4 978.944 102.4 923.648V202.24C102.4 147.456 147.456 102.4 202.24 102.4h567.808C825.344 102.4 870.4 147.456 870.4 202.24v721.408c0 55.296-45.056 100.352-100.352 100.352zM202.24 153.6c-26.624 0-48.64 22.016-48.64 48.64v721.408c0 27.136 22.016 49.152 48.64 49.152h567.808c27.136 0 49.152-22.016 49.152-49.152V202.24c0-26.624-22.016-48.64-49.152-48.64H202.24z"
          p-id="1827"></path>
    <path d="M332.8 204.8c-14.336 0-25.6-11.264-25.6-25.6v-102.4c0-14.336 11.264-25.6 25.6-25.6s25.6 11.264 25.6 25.6v102.4c0 14.336-11.264 25.6-25.6 25.6zM640 204.8c-14.336 0-25.6-11.264-25.6-25.6v-102.4c0-14.336 11.264-25.6 25.6-25.6s25.6 11.264 25.6 25.6v102.4c0 14.336-11.264 25.6-25.6 25.6zM691.2 460.8h-409.6c-14.336 0-25.6-11.264-25.6-25.6s11.264-25.6 25.6-25.6h409.6c14.336 0 25.6 11.264 25.6 25.6s-11.264 25.6-25.6 25.6zM588.8 614.4h-307.2c-14.336 0-25.6-11.264-25.6-25.6s11.264-25.6 25.6-25.6h307.2c14.336 0 25.6 11.264 25.6 25.6s-11.264 25.6-25.6 25.6zM486.4 768h-204.8c-14.336 0-25.6-11.264-25.6-25.6s11.264-25.6 25.6-25.6h204.8c14.336 0 25.6 11.264 25.6 25.6s-11.264 25.6-25.6 25.6z"
          p-id="1828"></path>
</svg>