<svg t="1692855706489" class="icon" viewBox="0 0 1024 1024" version="1.1" xmlns="http://www.w3.org/2000/svg" p-id="1399"
     width="32" height="32" fill="#777">
    <path d="M213.3504 793.6H157.8496c-44.7488 0-81.152-36.352-81.152-81.0496V157.8496C76.8 113.152 113.152 76.8 157.8496 76.8h554.7008c44.6976 0 80.9984 36.352 80.9984 81.0496V256h-51.2V157.8496a29.9008 29.9008 0 0 0-29.8496-29.8496H157.8496a29.9008 29.9008 0 0 0-29.9008 29.8496v554.7008c0 16.4352 13.4144 29.8496 29.9008 29.8496h55.4496v51.2z"
          p-id="1400"></path>
    <path d="M640 947.2H256c-42.3424 0-76.8-34.4576-76.8-76.8V307.2c0-42.3424 34.4576-76.8 76.8-76.8h563.2c42.3424 0 76.8 34.4576 76.8 76.8v281.6h-51.2V307.2a25.6 25.6 0 0 0-25.6-25.6H256a25.6 25.6 0 0 0-25.6 25.6v563.2a25.6 25.6 0 0 0 25.6 25.6h384v51.2z"
          p-id="1401"></path>
    <path d="M681.7792 947.2h69.9904c12.032-29.3376 29.8496-50.2272 53.2992-62.3104 25.4976-13.1072 56.7296-15.2064 92.9792-6.2976l17.92-37.7344c-24.4736-24.8832-36.864-50.8928-36.864-77.7216 0-27.392 12.9024-54.0672 38.5536-79.4624l-24.2688-73.7792c-77.568-0.6144-118.016-36.3008-139.008-72.2944h-75.2128c-20.992 35.9936-61.44 71.68-139.008 72.2944l-24.2688 73.7792c25.6512 25.3952 38.656 52.0192 38.656 79.4624 0 26.8288-12.4416 52.8384-36.9664 77.7216l17.9712 37.7344c36.1984-8.9088 67.4816-6.8096 92.928 6.2976 23.4496 12.0832 41.3184 32.9728 53.2992 62.3104m88.1664 51.2h-106.2912a25.6 25.6 0 0 1-24.576-18.3296c-7.424-25.1904-18.8928-41.8816-34.048-49.664-17.5616-9.0624-42.752-7.936-74.752 3.1232a25.6 25.6 0 0 1-31.5904-13.1584l-35.4304-74.496a25.6512 25.6512 0 0 1 6.656-30.6176c22.1696-18.6368 33.4336-36.1984 33.4336-52.1216 0-15.9232-11.264-33.4848-33.4848-52.224a25.6 25.6 0 0 1-7.8336-27.5456l35.4816-107.6224a26.112 26.112 0 0 1 25.9584-17.5616c79.5136 5.4272 104.7552-29.9008 116.7872-56.7296a25.7536 25.7536 0 0 1 23.3984-15.0528h106.2912c10.0352 0 19.2 5.888 23.3472 15.0528 12.032 26.8288 37.888 62.1056 116.7872 56.7296a25.4976 25.4976 0 0 1 25.9584 17.5616l35.4304 107.6224a25.4464 25.4464 0 0 1-7.7824 27.5456c-22.2208 18.7392-33.4336 36.3008-33.4336 52.224 0.0512 15.9232 11.264 33.4848 33.4336 52.1728a25.6 25.6 0 0 1 6.656 30.5664l-35.5328 74.496a25.7024 25.7024 0 0 1-31.4368 13.1584c-32.1536-11.0592-57.2928-12.1856-74.8544-3.1232-15.1552 7.7824-26.5728 24.4736-34.048 49.664a25.6 25.6 0 0 1-24.5248 18.3296"
          p-id="1402"></path>
    <path d="M716.8 691.2a51.2 51.2 0 1 0 0 102.4 51.2 51.2 0 0 0 0-102.4m0 153.6c-56.4736 0-102.4-45.9264-102.4-102.4s45.9264-102.4 102.4-102.4 102.4 45.9264 102.4 102.4-45.9264 102.4-102.4 102.4"
          p-id="1403"></path>
</svg>