<svg viewBox="0 0 1024 1024" version="1.1" xmlns="http://www.w3.org/2000/svg"
     width="20" height="20" fill="#777">
    <path d="M128 768V256l384 170.666667v512z" opacity=".16"></path>
    <path d="M936.533333 245.333333v-2.133333c0-2.133333-2.133333-6.4-4.266666-8.533333-2.133333-2.133333-4.266667-6.4-6.4-8.533334l-2.133334-2.133333c-2.133333-2.133333-6.4-4.266667-8.533333-6.4l-384-170.666667c-10.666667-4.266667-23.466667-4.266667-34.133333 0l-384 170.666667s-2.133333 0-2.133334 2.133333c-2.133333 0-2.133333 0-4.266666 2.133334l-2.133334 2.133333c-2.133333 0-2.133333 2.133333-4.266666 2.133333-2.133333 2.133333-2.133333 4.266667-4.266667 4.266667 0 2.133333-2.133333 2.133333-2.133333 4.266667-2.133333 2.133333-2.133333 4.266667-2.133334 6.4 0 2.133333 0 2.133333-2.133333 4.266666-4.266667 2.133333-4.266667 6.4-4.266667 10.666667v512c0 4.266667 0 6.4 2.133334 10.666667v2.133333c2.133333 4.266667 2.133333 6.4 4.266666 10.666667l6.4 6.4 2.133334 2.133333c2.133333 2.133333 6.4 4.266667 8.533333 6.4l384 170.666667c6.4 2.133333 10.666667 4.266667 17.066667 4.266666 4.266667 0 6.4 0 10.666666-2.133333h2.133334c2.133333 0 2.133333 0 4.266666-2.133333l384-170.666667s2.133333 0 2.133334-2.133333c2.133333 0 4.266667-2.133333 4.266666-2.133334 2.133333 0 2.133333-2.133333 2.133334-2.133333 2.133333 0 2.133333-2.133333 4.266666-2.133333 0 0 2.133333-2.133333 2.133334-4.266667s2.133333-2.133333 2.133333-4.266667 2.133333-2.133333 2.133333-4.266666 2.133333-2.133333 2.133334-4.266667 0-2.133333 2.133333-4.266667c0-2.133333 0-2.133333 2.133333-4.266666V768 256c2.133333-4.266667 2.133333-6.4 0-10.666667zM170.666667 740.266667V322.133333l85.333333 38.4V554.666667c0 23.466667 19.2 42.666667 42.666667 42.666666s42.666667-19.2 42.666666-42.666666v-157.866667l128 57.6v418.133333l-93.866666-42.666666L170.666667 740.266667z m384-285.866667l298.666666-132.266667v418.133334l-298.666666 132.266666V454.4z m-42.666667-74.666667l-98.133333-42.666666L693.333333 213.333333l98.133334 42.666667L512 379.733333z m0-247.466666l76.8 34.133333-279.466667 123.733333-76.8-34.133333L512 132.266667z"
          ></path>
</svg>