<svg viewBox="0 0 1024 1024" version="1.1" xmlns="http://www.w3.org/2000/svg"
     width="20" height="20" fill="#777">
    <path d="M141.275429 459.081143c9.874286-4.717714 14.153143-12.013714 13.714285-24.009143-1.28-15.433143-18.834286-36.864-18.834285-93.860571 0-91.702857 59.136-155.995429 151.698285-155.995429h1.28v58.697143c0 33.865143 26.587429 41.581714 52.297143 22.308571l116.992-85.284571c19.712-14.153143 19.712-30.866286 0-45.44l-116.992-85.705143c-26.148571-19.730286-52.297143-11.995429-52.297143 22.710857V135.497143h-1.700571c-123.008 0-204.854857 82.724571-204.854857 205.293714 0 45.860571 9.417143 83.565714 22.710857 106.276572 7.277714 12.434286 22.710857 18.432 35.986286 12.013714z m690.011428 534.857143c73.289143 0 110.134857-35.145143 110.134857-110.153143v-423.862857c0-74.989714-36.845714-110.134857-110.134857-110.134857H406.564571c-73.289143 0-110.134857 35.145143-110.134857 110.134857v423.862857c0 75.008 36.864 110.153143 110.134857 110.153143z m-1.28-69.010286H407.862857c-29.586286 0-42.422857-11.995429-42.422857-42.422857v-421.302857c0-30.409143 12.836571-42.422857 42.422857-42.422857H829.988571c29.568 0 42.422857 12.013714 42.422858 42.422857v421.302857c0 30.427429-12.854857 42.422857-42.422858 42.422857z"
          ></path>
</svg>